<svg xmlns="http://www.w3.org/2000/svg" viewBox="0 0 146.439 118.576">
  <defs>
    <style>
      .cls-1 {
        fill: #444;
        opacity: 0.998;
      }
    </style>
  </defs>
  <path id="Shape_1" data-name="Shape 1" class="cls-1" d="M141.525,16.036H131.26V5.4A4.917,4.917,0,0,0,127.074.533a75.37,75.37,0,0,0-22.462.676C91.187,3.655,80.481,9.685,73.219,18.8,65.958,9.685,55.251,3.655,41.827,1.209A75.388,75.388,0,0,0,19.365.533,4.918,4.918,0,0,0,15.179,5.4V16.036H4.914A4.917,4.917,0,0,0,0,20.956v92.7A4.915,4.915,0,0,0,6.53,118.3c.369-.128,37.192-12.709,64.65-.17a4.907,4.907,0,0,0,4.079,0c27.381-12.5,64.283.043,64.65.17a4.914,4.914,0,0,0,6.53-4.645v-92.7A4.918,4.918,0,0,0,141.525,16.036Zm-131.7,91.04v-81.2h5.351V91.39a4.922,4.922,0,0,0,5.634,4.866c.271-.039,21.619-2.974,37.215,7.739C38.816,100.706,19.588,104.511,9.828,107.076Zm58.477-7.517C61.436,93.345,52.489,89.144,41.827,87.2a77.033,77.033,0,0,0-13.7-1.207c-1.13,0-2.176.024-3.123.062V9.916h0c9.445-.426,32.42.584,43.3,19.047Zm9.828-70.6c10.84-18.384,33.851-19.44,43.3-19.035V86.056a77.817,77.817,0,0,0-16.82,1.145C93.95,89.144,85,93.345,78.133,99.559v-70.6ZM88.394,104c15.6-10.719,36.957-7.782,37.224-7.743a4.916,4.916,0,0,0,5.642-4.866V25.875h5.351v81.2C126.848,104.51,107.612,100.7,88.394,104Z" transform="translate(0 -0.002)"/>
</svg>
