<svg xmlns="http://www.w3.org/2000/svg" viewBox="0 0 60.908 60.906">
  <defs>
    <style>
      .cls-1 {
        fill: #444;
      }
    </style>
  </defs>
  <path id="Forma_1" data-name="Forma 1" class="cls-1" d="M33.092,60.716l-3.828-1.627-3.828,1.625a2.379,2.379,0,0,1-3.309-2.19V46.846a10.944,10.944,0,1,1,14.275.205V58.527a2.379,2.379,0,0,1-3.31,2.189Zm-2.9-6.4,1.449.616V49.37a10.976,10.976,0,0,1-4.758-.053V54.93l1.449-.615a2.38,2.38,0,0,1,1.861,0Zm-7-15.654a6.186,6.186,0,1,0,6.186-6.186A6.193,6.193,0,0,0,23.2,38.661ZM43.54,53.412a2.379,2.379,0,1,1,0-4.758H46.01a7.6,7.6,0,0,1-.568-2.886V7.644a2.889,2.889,0,0,0-2.886-2.886h-.175a2.889,2.889,0,0,0-2.886,2.886v6.736a2.379,2.379,0,0,1-2.379,2.379H13.086V43.9a4.748,4.748,0,0,0,2.935,4.4A2.379,2.379,0,1,1,14.2,52.686,9.493,9.493,0,0,1,8.327,43.9V16.76H2.379A2.379,2.379,0,0,1,0,14.381V9.517A9.527,9.527,0,0,1,9.517,0h33.04A7.653,7.653,0,0,1,50.2,7.644V36.176h8.327a2.379,2.379,0,0,1,2.379,2.379v7.212a7.653,7.653,0,0,1-7.582,7.643H43.54ZM50.2,45.767a2.889,2.889,0,0,0,2.886,2.886h.175a2.889,2.889,0,0,0,2.886-2.886V40.934H50.2ZM4.758,9.517V12H34.736V7.644A7.6,7.6,0,0,1,35.3,4.758H9.517A4.764,4.764,0,0,0,4.758,9.517Z"/>
</svg>
