<svg xmlns="http://www.w3.org/2000/svg" viewBox="0 0 62.586 62.587">
  <defs>
    <style>
      .cls-1 {
        fill: #444;
      }
    </style>
  </defs>
  <path id="Forma_1" data-name="Forma 1" class="cls-1" d="M16.5,61.183a5.5,5.5,0,0,1-9.168-4.1V40.147A5.5,5.5,0,0,1,0,34.961v-11a9.178,9.178,0,0,1,9.168-9.168h11A5.465,5.465,0,0,1,24.059,16.4l1.611,1.611V5.5a5.507,5.507,0,0,1,5.5-5.5H57.086a5.507,5.507,0,0,1,5.5,5.5V23.959a5.507,5.507,0,0,1-5.5,5.5H36.138l-6.174,3.087a5.522,5.522,0,0,1-4.294.268V57.086a5.5,5.5,0,0,1-9.168,4.1Zm1.834-22.555V57.086a1.834,1.834,0,1,0,3.667,0V29.145s0,0,0-.005a1.835,1.835,0,0,1,3.13-1.291l1.074,1.074a1.833,1.833,0,0,0,2.119.343L35.658,25.6a1.834,1.834,0,0,0-1.64-3.281L29.047,24.8a1.834,1.834,0,0,1-2.116-.343L21.466,19a1.821,1.821,0,0,0-1.3-.537h-11a5.507,5.507,0,0,0-5.5,5.5c0,1.13,0,9.619,0,11a1.834,1.834,0,0,0,3.667,0v-11a1.834,1.834,0,1,1,3.667,0V57.086a1.834,1.834,0,1,0,3.667,0V38.628a1.834,1.834,0,1,1,3.667,0ZM51.147,15.8a1.834,1.834,0,0,1-.82,2.46L40.3,23.278a5.48,5.48,0,0,1-.242,2.42c-.011.032-.023.062-.034.094H57.086a1.836,1.836,0,0,0,1.834-1.834V5.5a1.836,1.836,0,0,0-1.834-1.834H31.171A1.836,1.836,0,0,0,29.338,5.5V20.559l3.04-1.52A5.5,5.5,0,0,1,38.66,20l10.027-5.013a1.832,1.832,0,0,1,2.46.82ZM9.168,7.457A7.433,7.433,0,0,1,16.5,0a7.434,7.434,0,0,1,7.334,7.457,7.334,7.334,0,0,1-14.669,0Zm3.667,0a3.667,3.667,0,1,0,7.334,0A3.78,3.78,0,0,0,16.5,3.667,3.78,3.78,0,0,0,12.835,7.457Z"/>
</svg>
