<svg xmlns="http://www.w3.org/2000/svg" viewBox="0 0 29.328 29.328">
  <defs>
    <style>
      .cls-1 {
        fill: #444;
      }
    </style>
  </defs>
  <path id="Forma_1" data-name="Forma 1" class="cls-1" d="M4.583,29.328A4.588,4.588,0,0,1,0,24.746V6.874A4.588,4.588,0,0,1,4.583,2.291H6.015V1.146a1.146,1.146,0,0,1,2.291,0V2.291h5.155V1.146a1.146,1.146,0,0,1,2.291,0V2.291h5.213V1.146a1.146,1.146,0,1,1,2.291,0V2.291h1.489a4.588,4.588,0,0,1,4.583,4.583V19.017a1.146,1.146,0,0,1-2.291,0V6.874a2.294,2.294,0,0,0-2.291-2.291H23.256V5.728a1.146,1.146,0,1,1-2.291,0V4.583H15.752V5.728a1.146,1.146,0,0,1-2.291,0V4.583H8.306V5.728a1.146,1.146,0,0,1-2.291,0V4.583H4.583A2.294,2.294,0,0,0,2.291,6.874V24.746a2.294,2.294,0,0,0,2.291,2.291H24.746a2.294,2.294,0,0,0,2.291-2.291,1.146,1.146,0,0,1,2.291,0,4.588,4.588,0,0,1-4.583,4.583Zm14.779-7.217V18.243A4.122,4.122,0,0,1,13.4,14.549V12.258a1.146,1.146,0,0,1,2.291,0v2.291a1.833,1.833,0,1,0,3.666,0V12.258a1.146,1.146,0,0,1,2.291,0v9.852a1.146,1.146,0,0,1-2.291,0Zm-10.54-.458V14.6l-.444.344a1.146,1.146,0,0,1-1.4-1.811l2.291-1.776a1.146,1.146,0,0,1,1.847.906v9.394a1.146,1.146,0,1,1-2.291,0Z"/>
</svg>
