<svg xmlns="http://www.w3.org/2000/svg" viewBox="0 0 33.256 33.25">
  <defs>
    <style>
      .cls-1 {
        fill: #444;
      }
    </style>
  </defs>
  <path id="Forma_1" data-name="Forma 1" class="cls-1" d="M10.782,33.348a1.3,1.3,0,1,1,0-2.6h4.547v-2.59H5.2a5.2,5.2,0,0,1-5.2-5.2V9.973A5.155,5.155,0,0,1,.472,7.807,1.3,1.3,0,1,1,2.833,8.891,2.576,2.576,0,0,0,2.6,9.973v12.99a2.6,2.6,0,0,0,2.6,2.6H28.06a2.6,2.6,0,0,0,2.6-2.6,1.3,1.3,0,1,1,2.6,0,5.2,5.2,0,0,1-5.2,5.2H17.927v2.59h4.547a1.3,1.3,0,1,1,0,2.6Zm5.976-14.087h-.014a1.3,1.3,0,0,1-.834-.3,16.406,16.406,0,0,0-6.034-2.108A1.3,1.3,0,0,1,8.7,15.559,21.942,21.942,0,0,1,9.468,8.85L7.34,8.092v2.985a1.3,1.3,0,0,1-2.6,0V5.426a1.294,1.294,0,0,1,.106-.513A2.514,2.514,0,0,1,6.453,3.376L14.4.507a7.19,7.19,0,0,1,4.779,0l7.894,2.871a2.374,2.374,0,0,1,1.706,2.2,2.377,2.377,0,0,1-1.711,2.2L24.05,8.857a21.987,21.987,0,0,1,.762,6.7,1.3,1.3,0,0,1-1.173,1.293,16.615,16.615,0,0,0-6.034,2.108,1.3,1.3,0,0,1-.834.3Zm-5.441-4.8a19.587,19.587,0,0,1,5.441,1.993A19.585,19.585,0,0,1,22.2,14.458a18.145,18.145,0,0,0-.6-4.723l-2.428.871h0a7.187,7.187,0,0,1-4.776,0l-2.482-.884A18.023,18.023,0,0,0,11.317,14.458Zm3.956-6.3a4.614,4.614,0,0,0,3.025,0l7.21-2.586L18.292,2.95a4.608,4.608,0,0,0-3.016,0L12.02,4.127h4.853a1.3,1.3,0,1,1,0,2.6H11.245Zm15.385,8.308v-6.5a2.576,2.576,0,0,0-.235-1.082,1.3,1.3,0,1,1,2.361-1.084,5.156,5.156,0,0,1,.472,2.166v6.5a1.3,1.3,0,0,1-2.6,0Z" transform="translate(0 -0.098)"/>
</svg>
