<svg xmlns="http://www.w3.org/2000/svg" viewBox="0 0 32.02 34.925">
  <defs>
    <style>
      .cls-1 {
        fill: #444;
      }
    </style>
  </defs>
  <path id="Forma_1" data-name="Forma 1" class="cls-1" d="M9.515,35.248a.532.532,0,0,1-.533-.532V33.248H.534A.532.532,0,0,1,0,32.719V29.927A4.968,4.968,0,0,1,4.96,24.972H9.078a4.923,4.923,0,0,1,2.428.639,5,5,0,0,1,1.6,1.435,4.931,4.931,0,0,1,.852-.073h4.122a4.938,4.938,0,0,1,.852.073,5.007,5.007,0,0,1,1.6-1.435,4.923,4.923,0,0,1,2.428-.639h4.118a4.968,4.968,0,0,1,4.945,4.955v2.789a.532.532,0,0,1-.533.532H23.038v1.468a.532.532,0,0,1-.533.532ZM13.85,28.1a3.916,3.916,0,0,0-3.7,2.687l-.026.088-.037.132-.022.088v3.094h11.9v-2.51a.9.9,0,0,1-.022-.242,3.907,3.907,0,0,0-3.861-3.395H13.957Zm7.2-1.563a3.954,3.954,0,0,0-.8.866,5,5,0,0,1,2.7,2.83l.051.143v.18l.026.092v1.541h7.935V29.927a3.9,3.9,0,0,0-3.894-3.89H22.949A3.86,3.86,0,0,0,21.05,26.535ZM1.066,29.927v2.257H9.038V31.45a4.981,4.981,0,0,1,2.976-4.074,3.956,3.956,0,0,0-1.032-.84,3.859,3.859,0,0,0-1.9-.5H4.96A3.9,3.9,0,0,0,1.066,29.927ZM13.374,24.97a3.75,3.75,0,1,1,2.645,1.092A3.741,3.741,0,0,1,13.374,24.97Zm-.042-2.646a2.686,2.686,0,1,0,2.686-2.682h0A2.684,2.684,0,0,0,13.332,22.324ZM7.011,24.073a3.746,3.746,0,1,1,3.754-3.744,3.749,3.749,0,0,1-3.754,3.744ZM5.118,18.426a2.687,2.687,0,1,0,1.9-.786A2.681,2.681,0,0,0,5.118,18.426Zm19.9,5.643a3.747,3.747,0,1,1,3.754-3.744,3.738,3.738,0,0,1-3.754,3.744Zm-1.9-5.645a2.687,2.687,0,1,0,1.9-.786A2.674,2.674,0,0,0,23.119,18.424ZM9.731,16.12a.529.529,0,0,1-.443-.6L9.71,12.71a7.417,7.417,0,0,1-1.87-2.2,6.1,6.1,0,0,1-.76-2.936A6.629,6.629,0,0,1,9.743,2.409,10.076,10.076,0,0,1,16.018.324a10.076,10.076,0,0,1,6.274,2.085,6.63,6.63,0,0,1,2.663,5.164,6.642,6.642,0,0,1-2.66,5.164,10.075,10.075,0,0,1-6.274,2.085,11.036,11.036,0,0,1-1.682-.128,10.5,10.5,0,0,1-1.389-.312l-2.873,1.674a.529.529,0,0,1-.346.066Zm.662-12.886A5.587,5.587,0,0,0,8.134,7.572a5.04,5.04,0,0,0,.624,2.422A6.443,6.443,0,0,0,10.6,12.05a.532.532,0,0,1,.217.51l-.3,2.019,2.1-1.237a.529.529,0,0,1,.426-.048,9.445,9.445,0,0,0,1.469.341,9.971,9.971,0,0,0,1.517.114,9.009,9.009,0,0,0,5.613-1.835,5.587,5.587,0,0,0,2.248-4.342A5.564,5.564,0,0,0,21.62,3.234,9.009,9.009,0,0,0,16.007,1.4h-.161A9.01,9.01,0,0,0,10.393,3.234Zm8.937,4.232a.6.6,0,1,1,.6.6A.6.6,0,0,1,19.331,7.466Zm-3.894,0a.6.6,0,1,1,.6.6A.6.6,0,0,1,15.437,7.466Zm-3.894,0a.6.6,0,1,1,.6.6A.6.6,0,0,1,11.543,7.466Z" transform="translate(0 -0.323)"/>
</svg>
