<svg xmlns="http://www.w3.org/2000/svg" viewBox="0 0 50.586 50.554">
  <defs>
    <style>
      .cls-1 {
        fill: #444;
      }
    </style>
  </defs>
  <path id="Forma_1" data-name="Forma 1" class="cls-1" d="M5.73,50.884A5.735,5.735,0,0,1,0,45.158V43.38a.988.988,0,0,1,.988-.987H2.173V37.558H.988A.988.988,0,0,1,0,36.57V14.945a.988.988,0,0,1,.988-.987h14a3.575,3.575,0,0,1,2.6,1.117,3.575,3.575,0,0,1,2.6-1.117h2.552a.987.987,0,1,1,0,1.975H20.184a1.61,1.61,0,0,0-1.609,1.608V32.112a3.565,3.565,0,0,1,1.609-.381h9.2a9.473,9.473,0,0,1-4.028-6.765H25.04a3.29,3.29,0,1,1,0-6.581h.275a.988.988,0,0,1-.01-.137V12.141L19.529,9.355a.987.987,0,0,1,0-1.779L34.349.428a.988.988,0,0,1,.859,0l14.82,7.148.014.008a.986.986,0,0,1,.544.881v6.082a.988.988,0,0,1-1.976,0V10.039l-4.359,2.1v6.107a.987.987,0,0,1-.01.137h.275a3.29,3.29,0,1,1,0,6.581H44.2a9.486,9.486,0,0,1-9.024,8.443V36.57a.988.988,0,0,1-.988.987H4.149v4.835H46.437V27.878a.988.988,0,0,1,1.976,0V42.393H49.6a.988.988,0,0,1,.988.987v1.777a5.735,5.735,0,0,1-5.731,5.727ZM1.976,45.158A3.758,3.758,0,0,0,5.73,48.91H44.856a3.758,3.758,0,0,0,3.755-3.752v-.79H1.976Zm16.6-9.844a.984.984,0,0,1-.038.27H33.2V33.705H20.184A1.61,1.61,0,0,0,18.575,35.313Zm-16.6.269H16.637a.983.983,0,0,1-.038-.27,1.61,1.61,0,0,0-1.609-1.608H1.976Zm0-3.852H14.99a3.565,3.565,0,0,1,1.609.381V17.54a1.61,1.61,0,0,0-1.609-1.608H1.976Zm25.3-7.781a7.5,7.5,0,0,0,15,0V19.761l-7.1,3.122a.988.988,0,0,1-.8,0l-7.1-3.122Zm-3.557-2.274a1.317,1.317,0,0,0,1.316,1.316H25.3V20.36H25.04A1.317,1.317,0,0,0,23.724,21.675Zm20.528,1.315h.264a1.316,1.316,0,1,0,0-2.631h-.264ZM27.281,17.6l7.5,3.3,7.5-3.3v-4.51L35.208,16.5a.989.989,0,0,1-.859,0l-7.068-3.409Zm-5.05-9.138,12.547,6.052,10.5-5.064H37.557a.987.987,0,1,1,0-1.975h7.721l-10.5-5.064Zm.905,39.16a.987.987,0,1,1,0-1.975H27.5a.987.987,0,1,1,0,1.975ZM5.632,27.189a.987.987,0,1,1,0-1.975H8.793a.987.987,0,1,1,0,1.975Zm6.2-.291a.988.988,0,1,1,.7.289A.99.99,0,0,1,11.831,26.9Zm-6.2-4.449a.987.987,0,1,1,0-1.975h6.9a.987.987,0,1,1,0,1.975ZM48.9,19.65a.988.988,0,1,1,.7.289A.994.994,0,0,1,48.9,19.65ZM34.08,9.164a.988.988,0,1,1,.7.289A.992.992,0,0,1,34.08,9.164Z" transform="translate(0 -0.33)"/>
</svg>
